<svg width="40" height="40" viewBox="0 0 40 40" fill="none" xmlns="http://www.w3.org/2000/svg">
<path d="M6.66669 36.6667C6.66669 33.1304 8.07144 29.739 10.5719 27.2386C13.0724 24.7381 16.4638 23.3333 20 23.3333C23.5362 23.3333 26.9276 24.7381 29.4281 27.2386C31.9286 29.739 33.3334 33.1304 33.3334 36.6667H30C30 34.0145 28.9465 31.471 27.0711 29.5956C25.1957 27.7202 22.6522 26.6667 20 26.6667C17.3479 26.6667 14.8043 27.7202 12.929 29.5956C11.0536 31.471 10 34.0145 10 36.6667H6.66669ZM20 21.6667C14.475 21.6667 10 17.1917 10 11.6667C10 6.14166 14.475 1.66666 20 1.66666C25.525 1.66666 30 6.14166 30 11.6667C30 17.1917 25.525 21.6667 20 21.6667ZM20 18.3333C23.6834 18.3333 26.6667 15.35 26.6667 11.6667C26.6667 7.98332 23.6834 4.99999 20 4.99999C16.3167 4.99999 13.3334 7.98332 13.3334 11.6667C13.3334 15.35 16.3167 18.3333 20 18.3333Z" fill="black"/>
</svg>
