<svg width="52" height="52" viewBox="0 0 52 52" fill="none" xmlns="http://www.w3.org/2000/svg">
<path d="M15.1667 17.3333V13C15.1667 10.1268 16.308 7.37132 18.3397 5.33968C20.3713 3.30803 23.1268 2.16667 26 2.16667C28.8732 2.16667 31.6287 3.30803 33.6603 5.33968C35.692 7.37132 36.8333 10.1268 36.8333 13V17.3333H43.3333C43.908 17.3333 44.4591 17.5616 44.8654 17.9679C45.2717 18.3743 45.5 18.9254 45.5 19.5V45.5C45.5 46.0746 45.2717 46.6257 44.8654 47.0321C44.4591 47.4384 43.908 47.6667 43.3333 47.6667H8.66667C8.09203 47.6667 7.54093 47.4384 7.1346 47.0321C6.72827 46.6257 6.5 46.0746 6.5 45.5V19.5C6.5 18.9254 6.72827 18.3743 7.1346 17.9679C7.54093 17.5616 8.09203 17.3333 8.66667 17.3333H15.1667ZM15.1667 21.6667H10.8333V43.3333H41.1667V21.6667H36.8333V26H32.5V21.6667H19.5V26H15.1667V21.6667ZM19.5 17.3333H32.5V13C32.5 11.2761 31.8152 9.62279 30.5962 8.40381C29.3772 7.18482 27.7239 6.5 26 6.5C24.2761 6.5 22.6228 7.18482 21.4038 8.40381C20.1848 9.62279 19.5 11.2761 19.5 13V17.3333Z" fill="white"/>
</svg>
