<svg width="52" height="52" viewBox="0 0 52 52" fill="none" xmlns="http://www.w3.org/2000/svg">
<path d="M8.66658 32.5H12.9999V43.3333H38.9999V8.66668H12.9999V19.5H8.66658V6.50001C8.66658 5.92537 8.89486 5.37427 9.30119 4.96795C9.70752 4.56162 10.2586 4.33334 10.8333 4.33334H41.1666C41.7412 4.33334 42.2923 4.56162 42.6986 4.96795C43.105 5.37427 43.3332 5.92537 43.3332 6.50001V45.5C43.3332 46.0746 43.105 46.6257 42.6986 47.0321C42.2923 47.4384 41.7412 47.6667 41.1666 47.6667H10.8333C10.2586 47.6667 9.70752 47.4384 9.30119 47.0321C8.89486 46.6257 8.66658 46.0746 8.66658 45.5V32.5ZM21.6666 23.8333V17.3333L32.4999 26L21.6666 34.6667V28.1667H4.33325V23.8333H21.6666Z" fill="black"/>
</svg>
