<svg width="49" height="30" viewBox="0 0 49 30" fill="none" xmlns="http://www.w3.org/2000/svg">
<path d="M48.4551 25.7188C47.8809 27.9062 45.9805 29 42.7539 29H35.3916C33.0947 29 31.9463 28.3369 31.9463 27.0107C31.9463 26.5459 32.0898 25.9375 32.377 25.1855L35.7812 16.3262L25.6094 27.4824C24.5156 28.6992 23.3193 29.3076 22.0205 29.3076C21.7744 29.3076 21.5146 29.2871 21.2412 29.2461C19.6826 29.0684 18.9033 28.2891 18.9033 26.9082C18.9033 26.375 19.0264 25.8008 19.2725 25.1855L24.3174 12.1631L11.6641 27.4414C10.8164 28.4805 9.57227 29 7.93164 29H3.76855L12.0537 5.31348H0.671875L3.76855 0.145508H17.4678C19.3545 0.145508 20.2979 0.835938 20.2979 2.2168C20.2979 2.75 20.168 3.39258 19.9082 4.14453L15.499 16.8594L24.3174 6.87207C25.4385 5.58691 26.2998 4.75293 26.9014 4.37012C27.8994 3.74121 29.1914 3.42676 30.7773 3.42676C31.2285 3.42676 31.7002 3.58398 32.1924 3.89844C32.9443 4.39062 33.3203 5.12207 33.3203 6.09277C33.3203 6.69434 33.1699 7.37109 32.8691 8.12305L28.8906 18.459L36.7861 10.5225C37.9072 9.40137 38.6523 8.72461 39.0215 8.49219C39.6641 8.12305 40.5869 7.94531 41.79 7.95898C42.2686 7.95898 42.7744 8.13672 43.3076 8.49219C44.1279 9.02539 44.5381 9.80469 44.5381 10.8301C44.5381 11.418 44.4014 12.0674 44.1279 12.7783L39.2266 25.7188H48.4551Z" fill="url(#paint0_linear_2_52)"/>
<defs>
<linearGradient id="paint0_linear_2_52" x1="27.8571" y1="0.5" x2="25.6648" y2="26.057" gradientUnits="userSpaceOnUse">
<stop stop-color="#DDE034"/>
<stop offset="0.494792" stop-color="#35CCC3"/>
<stop offset="1" stop-color="#CC3BB5"/>
</linearGradient>
</defs>
</svg>
