<svg width="52" height="52" viewBox="0 0 52 52" fill="none" xmlns="http://www.w3.org/2000/svg">
<path d="M23.8333 15.1667H28.1667V36.8333H23.8333V15.1667ZM32.5 23.8333H36.8333V36.8333H32.5V23.8333ZM15.1667 28.1667H19.5V36.8333H15.1667V28.1667ZM32.5 8.66666H10.8333V43.3333H41.1667V17.3333H32.5V8.66666ZM6.5 6.48266C6.5 5.29533 7.4685 4.33333 8.6645 4.33333H34.6667L45.5 15.1667V45.4848C45.502 45.7694 45.4479 46.0515 45.3409 46.3151C45.2339 46.5788 45.0759 46.8187 44.8761 47.0214C44.6764 47.224 44.4386 47.3852 44.1765 47.4959C43.9144 47.6067 43.633 47.6647 43.3485 47.6667H8.6515C8.08249 47.6627 7.53787 47.435 7.1353 47.0329C6.73274 46.6307 6.50454 46.0863 6.5 45.5173V6.48266Z" fill="black"/>
</svg>
