<svg width="52" height="52" viewBox="0 0 52 52" fill="none" xmlns="http://www.w3.org/2000/svg">
<path d="M8.66675 47.6667C8.66675 43.0696 10.4929 38.6608 13.7436 35.4101C16.9942 32.1595 21.403 30.3333 26.0001 30.3333C30.5972 30.3333 35.006 32.1595 38.2566 35.4101C41.5072 38.6608 43.3334 43.0696 43.3334 47.6667H39.0001C39.0001 44.2189 37.6304 40.9122 35.1925 38.4743C32.7545 36.0363 29.4479 34.6667 26.0001 34.6667C22.5523 34.6667 19.2457 36.0363 16.8077 38.4743C14.3697 40.9122 13.0001 44.2189 13.0001 47.6667H8.66675ZM26.0001 28.1667C18.8176 28.1667 13.0001 22.3492 13.0001 15.1667C13.0001 7.98416 18.8176 2.16666 26.0001 2.16666C33.1826 2.16666 39.0001 7.98416 39.0001 15.1667C39.0001 22.3492 33.1826 28.1667 26.0001 28.1667ZM26.0001 23.8333C30.7884 23.8333 34.6667 19.955 34.6667 15.1667C34.6667 10.3783 30.7884 6.5 26.0001 6.5C21.2117 6.5 17.3334 10.3783 17.3334 15.1667C17.3334 19.955 21.2117 23.8333 26.0001 23.8333Z" fill="black"/>
</svg>
